<?xml version="1.0" encoding="utf-8"?>
<!-- Generator: Adobe Illustrator 26.0.1, SVG Export Plug-In . SVG Version: 6.00 Build 0)  -->
<svg version="1.1" id="Layer_1" xmlns="http://www.w3.org/2000/svg" xmlns:xlink="http://www.w3.org/1999/xlink" x="0px" y="0px"
	 viewBox="0 0 500 500" style="enable-background:new 0 0 500 500;" xml:space="preserve">
<style type="text/css">
	.st0{fill:none;stroke:#FFFFFF;stroke-width:10;stroke-miterlimit:10;}
</style>
<path class="st0" d="M46.53,14.77h413.19c0,0,19.78-2.2,19.78,20.33s0,430.22,0,430.22s1.1,21.43-15.38,22.53s-417.58,0-417.58,0
	s-19.23,0.55-19.78-16.48c-0.55-17.03,0-435.16,0-435.16S25.1,14.77,46.53,14.77z"/>
<polygon class="st0" points="458.62,35.65 458.62,466.42 427.3,466.42 357.52,35.65 "/>
<polygon class="st0" points="357.52,466.42 347.08,383.45 269.05,383.45 258.62,466.42 "/>
<polygon class="st0" points="338.29,322.46 308.07,111.47 277.85,322.46 "/>
<polygon class="st0" points="263.01,35.65 194.33,466.42 161.36,466.42 161.36,35.65 "/>
<rect x="47.63" y="35.65" class="st0" width="44.51" height="430.77"/>
</svg>
